<?xml version="1.0" encoding="utf-8"?>
<!-- Generator: Adobe Illustrator 20.1.0, SVG Export Plug-In . SVG Version: 6.00 Build 0)  -->
<svg version="1.1" id="Layer_1" xmlns="http://www.w3.org/2000/svg" xmlns:xlink="http://www.w3.org/1999/xlink" x="0px" y="0px"
	 viewBox="0 0 376.9 240.7" style="enable-background:new 0 0 376.9 240.7;" xml:space="preserve">
<style type="text/css">
	.st0{fill-rule:evenodd;clip-rule:evenodd;fill:#ffffff;stroke:#ffffff;stroke-width:1.0001;stroke-miterlimit:2.6131;}
	.st1-bak{fill:#6D6E71;}
	.st1{fill:#ffffff;}
	.st2-bak{fill:#414042;}
	.st2{fill:#ffffff;}
	.st3{fill-rule:evenodd;clip-rule:evenodd;fill:none;stroke:#ffffff;stroke-width:1.0001;stroke-miterlimit:2.6131;}
	.st4{fill-rule:evenodd;clip-rule:evenodd;fill:none;stroke:#ffffff;stroke-width:0.5;stroke-miterlimit:2.6131;}
	.st5{fill-rule:evenodd;clip-rule:evenodd;fill:#ffffff;stroke:#ffffff;stroke-width:0.5;stroke-miterlimit:2.6131;}
	.st6{fill-rule:evenodd;clip-rule:evenodd;fill:#FFFFFF;stroke:#ffffff;stroke-width:0.5;stroke-miterlimit:2.6131;}
</style>
<g>
	<polygon class="st0" points="69.1,100.7 118.4,42.7 128.4,48.8 87.7,108.5 	"/>
	<path class="st1" d="M341.9,209.1v-1.7c0.3,0,0.6,0.1,0.9,0.1c0.4,0,0.7,0,1.2-0.1c0.4-0.1,0.8-0.2,1.2-0.3
		c0.4-0.1,0.8-0.2,1.1-0.4c0.4-0.1,0.7-0.3,0.9-0.4v2c-0.7,0.3-1.4,0.5-2.3,0.6c-0.8,0.1-1.6,0.2-2.3,0.2
		C342.4,209.1,342.2,209.1,341.9,209.1L341.9,209.1z M341.9,201.4v-1.7h4.3c0-0.7-0.1-1.3-0.2-2c-0.1-0.7-0.4-1.2-0.7-1.8
		c-0.3-0.5-0.7-0.9-1.3-1.2c-0.5-0.3-1.1-0.5-1.9-0.5c-0.1,0-0.2,0-0.3,0v-1.7c0.1,0,0.1,0,0.2,0c1.1,0,2.1,0.2,2.9,0.6
		c0.8,0.4,1.4,1,1.9,1.7c0.5,0.7,0.9,1.5,1.1,2.5c0.2,0.9,0.4,1.9,0.4,3v1H341.9L341.9,201.4z M350.7,208.4c0.7,0.3,1.4,0.5,2.2,0.6
		c0.7,0.1,1.5,0.2,2.3,0.2c0.6,0,1.2-0.1,1.9-0.2c0.6-0.2,1.2-0.4,1.8-0.8c0.5-0.4,1-0.8,1.3-1.4c0.4-0.6,0.5-1.3,0.5-2.1
		c0-0.9-0.2-1.6-0.6-2.2c-0.4-0.6-0.9-1.1-1.4-1.5c-0.6-0.4-1.2-0.8-1.9-1.1c-0.7-0.3-1.3-0.6-1.9-0.9c-0.6-0.3-1.1-0.6-1.4-0.9
		c-0.4-0.3-0.6-0.7-0.6-1.2c0-1,0.3-1.7,0.9-2.1c0.6-0.4,1.4-0.6,2.5-0.6c0.5,0,1.1,0.1,1.8,0.2c0.6,0.1,1.2,0.3,1.7,0.5l0.2-1.7
		c-0.7-0.3-1.4-0.5-2.2-0.6c-0.7-0.1-1.3-0.2-1.7-0.2c-0.7,0-1.3,0.1-1.9,0.2c-0.6,0.2-1.2,0.4-1.6,0.7c-0.5,0.3-0.9,0.8-1.2,1.3
		c-0.3,0.5-0.4,1.2-0.4,2c0,0.8,0.2,1.4,0.6,1.9c0.4,0.5,0.8,0.9,1.4,1.3c0.6,0.4,1.2,0.7,1.8,1c0.6,0.3,1.3,0.6,1.8,0.9
		c0.6,0.3,1,0.7,1.4,1.1c0.4,0.4,0.6,0.9,0.6,1.5c0,0.5-0.1,0.9-0.3,1.2c-0.2,0.4-0.4,0.6-0.8,0.9c-0.3,0.2-0.7,0.4-1.1,0.5
		s-0.9,0.2-1.3,0.2c-0.8,0-1.5-0.1-2.2-0.3c-0.7-0.2-1.3-0.4-1.9-0.7L350.7,208.4z M341.9,192.6v1.7c-0.6,0-1.1,0.2-1.6,0.5
		c-0.6,0.3-1.1,0.8-1.5,1.3c-0.4,0.5-0.7,1.1-0.9,1.8c-0.2,0.7-0.3,1.3-0.3,1.9h4.3v1.7h-4.3c0,0.8,0.1,1.6,0.3,2.4
		c0.2,0.7,0.6,1.4,1,1.9c0.4,0.5,1,1,1.6,1.3c0.4,0.2,0.9,0.3,1.4,0.4v1.7c-1-0.1-1.9-0.3-2.6-0.6c-0.9-0.4-1.7-1-2.2-1.7
		c-0.6-0.7-1-1.6-1.2-2.6c-0.3-1-0.4-2.1-0.4-3.3c0-1.2,0.2-2.3,0.5-3.3c0.3-1,0.8-1.9,1.3-2.6c0.6-0.7,1.3-1.3,2.1-1.7
		C340.2,192.8,341,192.6,341.9,192.6L341.9,192.6z M246.7,209.1v-1.7c0.8,0,1.6-0.2,2.2-0.5c0.6-0.3,1.2-0.8,1.6-1.4
		c0.4-0.6,0.8-1.3,1-2.1c0.2-0.8,0.3-1.7,0.3-2.6c0-0.9-0.1-1.8-0.3-2.6c-0.2-0.8-0.6-1.5-1-2.1c-0.4-0.6-1-1.1-1.6-1.4
		c-0.6-0.3-1.4-0.5-2.2-0.5v-1.7c1.3,0,2.4,0.2,3.3,0.7c0.9,0.5,1.7,1.1,2.3,1.8c0.6,0.8,1,1.6,1.3,2.6c0.3,1,0.4,2,0.4,3.1
		c0,1.1-0.1,2.1-0.4,3.1c-0.3,1-0.7,1.9-1.3,2.6c-0.6,0.8-1.4,1.4-2.3,1.8C249.1,208.9,248,209.1,246.7,209.1L246.7,209.1z
		 M257.7,208.7h1.9v-7.8c0-0.7,0.1-1.4,0.2-2.2c0.1-0.8,0.3-1.4,0.6-2c0.3-0.6,0.7-1.1,1.2-1.5c0.5-0.4,1.1-0.6,1.9-0.6
		c0.5,0,1,0.1,1.4,0.2v-2c-0.2,0-0.4-0.1-0.6-0.1c-0.3,0-0.5-0.1-0.7-0.1c-0.5,0-1,0.1-1.4,0.3c-0.4,0.2-0.8,0.4-1.1,0.8
		c-0.3,0.3-0.6,0.7-0.9,1.1c-0.2,0.4-0.5,0.8-0.6,1.3h-0.1v-3h-1.9c0,0.3,0,0.6,0.1,0.8c0,0.2,0,0.5,0,0.8c0,0.3,0,0.6,0,0.9
		c0,0.3,0,0.7,0,1.1V208.7L257.7,208.7z M274.8,193h-3.6v-4.5l-1.9,0.7v3.8h-3.1v1.7h3.1v9.2c0,0.7,0,1.4,0.1,2
		c0.1,0.6,0.2,1.2,0.4,1.7c0.2,0.5,0.6,0.8,1.1,1.1c0.5,0.3,1.2,0.4,2,0.4c0.5,0,0.9,0,1.4-0.1c0.4-0.1,0.8-0.2,1-0.3l-0.1-1.6
		c-0.3,0.1-0.6,0.2-0.8,0.3c-0.3,0.1-0.6,0.1-1,0.1c-0.8,0-1.3-0.3-1.6-0.8c-0.3-0.5-0.5-1.1-0.5-1.8v-10.2h3.6V193L274.8,193z
		 M290.6,193h-1.9v8.7c0,0.7-0.1,1.3-0.2,2c-0.2,0.7-0.4,1.3-0.8,1.9c-0.4,0.6-0.8,1-1.4,1.4c-0.6,0.4-1.3,0.5-2.2,0.5
		c-1.3,0-2.3-0.4-2.9-1.3c-0.6-0.9-0.9-2.1-0.9-3.6V193h-1.9V203c0,0.9,0.1,1.7,0.3,2.4c0.2,0.7,0.5,1.4,0.9,1.9
		c0.4,0.5,1,1,1.7,1.3c0.7,0.3,1.5,0.5,2.5,0.5c0.8,0,1.5-0.1,2.1-0.3c0.6-0.2,1-0.4,1.4-0.8c0.4-0.3,0.7-0.7,1-1
		c0.2-0.4,0.5-0.7,0.6-1.1h0.1v2.8h1.9c-0.1-0.6-0.1-1.3-0.1-1.9c0-0.6,0-1.2,0-1.8V193L290.6,193z M295.5,208.7h1.9V200
		c0-0.7,0.1-1.3,0.2-2c0.2-0.7,0.4-1.3,0.8-1.9c0.4-0.6,0.8-1,1.4-1.4c0.6-0.4,1.3-0.5,2.2-0.5c1.3,0,2.3,0.4,2.9,1.3
		c0.6,0.9,0.9,2.1,0.9,3.6v9.6h1.9v-10.1c0-0.9-0.1-1.7-0.3-2.4c-0.2-0.7-0.5-1.4-0.9-1.9c-0.4-0.5-1-1-1.7-1.3
		c-0.7-0.3-1.5-0.5-2.5-0.5c-0.8,0-1.5,0.1-2.1,0.3c-0.6,0.2-1,0.4-1.4,0.8c-0.4,0.3-0.7,0.7-1,1c-0.2,0.4-0.5,0.7-0.6,1.1h-0.1V193
		h-1.9c0.1,0.6,0.1,1.3,0.1,1.9c0,0.6,0,1.2,0,1.8V208.7L295.5,208.7z M312.6,208.7h1.9V193h-1.9V208.7L312.6,208.7z M314.6,186.8
		h-1.9v2.6h1.9V186.8L314.6,186.8z M326.3,193h-3.6v-4.5l-1.9,0.7v3.8h-3.1v1.7h3.1v9.2c0,0.7,0,1.4,0.1,2c0.1,0.6,0.2,1.2,0.4,1.7
		c0.2,0.5,0.6,0.8,1.1,1.1c0.5,0.3,1.2,0.4,2,0.4c0.5,0,0.9,0,1.4-0.1c0.4-0.1,0.8-0.2,1-0.3l-0.1-1.6c-0.3,0.1-0.6,0.2-0.8,0.3
		c-0.3,0.1-0.6,0.1-1,0.1c-0.8,0-1.3-0.3-1.6-0.8c-0.3-0.5-0.5-1.1-0.5-1.8v-10.2h3.6V193L326.3,193z M329.8,208.7h1.9V193h-1.9
		V208.7L329.8,208.7z M331.7,186.8h-1.9v2.6h1.9V186.8z M246.7,192.6v1.7c-0.8,0-1.6,0.2-2.2,0.5c-0.6,0.3-1.2,0.8-1.6,1.4
		c-0.4,0.6-0.8,1.3-1,2.1c-0.2,0.8-0.3,1.7-0.3,2.6c0,0.9,0.1,1.8,0.3,2.6c0.2,0.8,0.6,1.5,1,2.1c0.4,0.6,1,1.1,1.6,1.4
		c0.6,0.3,1.4,0.5,2.2,0.5v1.7c-1.3,0-2.4-0.2-3.3-0.7c-0.9-0.5-1.7-1.1-2.3-1.8c-0.6-0.8-1-1.6-1.3-2.6c-0.3-1-0.4-2-0.4-3.1
		c0-1.1,0.1-2.1,0.4-3.1c0.3-1,0.7-1.9,1.3-2.6c0.6-0.8,1.4-1.4,2.3-1.8C244.3,192.8,245.4,192.6,246.7,192.6L246.7,192.6z
		 M229.8,209.1v-1.7c0.9,0,1.7-0.2,2.3-0.6c0.6-0.4,1.1-0.9,1.4-1.5c0.4-0.6,0.6-1.3,0.7-2.1c0.1-0.8,0.2-1.6,0.2-2.3
		c0-0.8-0.1-1.5-0.2-2.3c-0.1-0.8-0.4-1.5-0.7-2.1c-0.4-0.6-0.8-1.1-1.4-1.5c-0.6-0.4-1.4-0.6-2.3-0.6v-1.7c0.1,0,0.2,0,0.3,0
		c1.2,0,2.1,0.2,3,0.6c0.8,0.4,1.5,1,2,1.7c0.5,0.7,0.9,1.6,1.1,2.6c0.2,1,0.4,2.1,0.4,3.3c0,1.2-0.1,2.3-0.4,3.3
		c-0.3,1-0.7,1.9-1.2,2.6c-0.5,0.7-1.2,1.3-2,1.7c-0.8,0.4-1.8,0.6-2.8,0.6C230,209.1,229.9,209.1,229.8,209.1z M229.8,192.6v1.7
		c-0.9,0-1.6,0.2-2.2,0.6c-0.6,0.4-1.1,0.9-1.4,1.6c-0.4,0.6-0.6,1.4-0.8,2.1c-0.2,0.8-0.2,1.5-0.2,2.2c0,0.7,0.1,1.5,0.2,2.2
		c0.2,0.8,0.4,1.5,0.8,2.1c0.4,0.6,0.8,1.2,1.4,1.6c0.6,0.4,1.3,0.6,2.2,0.6v1.7c-1.1,0-2-0.3-2.7-0.8c-0.8-0.5-1.4-1.3-1.9-2.3
		h-0.1v9.2h-1.9V193h1.9l-0.1,2.9h0.1c0.1-0.2,0.3-0.5,0.5-0.9c0.2-0.4,0.5-0.7,0.9-1.1c0.4-0.4,0.9-0.7,1.5-0.9
		C228.5,192.8,229.1,192.6,229.8,192.6L229.8,192.6z M212.6,209.1v-1.7c0.9,0,1.7-0.2,2.3-0.6c0.6-0.4,1.1-0.9,1.4-1.5
		c0.4-0.6,0.6-1.3,0.7-2.1c0.1-0.8,0.2-1.6,0.2-2.3c0-0.8-0.1-1.5-0.2-2.3c-0.1-0.8-0.4-1.5-0.7-2.1c-0.4-0.6-0.8-1.1-1.4-1.5
		c-0.6-0.4-1.4-0.6-2.3-0.6v-1.7c0.1,0,0.2,0,0.3,0c1.2,0,2.1,0.2,3,0.6c0.8,0.4,1.5,1,2,1.7c0.5,0.7,0.9,1.6,1.1,2.6
		c0.2,1,0.4,2.1,0.4,3.3c0,1.2-0.1,2.3-0.4,3.3c-0.3,1-0.7,1.9-1.2,2.6c-0.5,0.7-1.2,1.3-2,1.7c-0.8,0.4-1.8,0.6-2.8,0.6
		C212.8,209.1,212.7,209.1,212.6,209.1z M212.6,192.6v1.7c-0.9,0-1.6,0.2-2.2,0.6c-0.6,0.4-1.1,0.9-1.4,1.6
		c-0.4,0.6-0.6,1.4-0.8,2.1c-0.2,0.8-0.2,1.5-0.2,2.2c0,0.7,0.1,1.5,0.2,2.2c0.2,0.8,0.4,1.5,0.8,2.1c0.4,0.6,0.8,1.2,1.4,1.6
		c0.6,0.4,1.3,0.6,2.2,0.6v1.7c-1.1,0-2-0.3-2.7-0.8c-0.8-0.5-1.4-1.3-1.9-2.3H208v9.2H206V193h1.9l-0.1,2.9h0.1
		c0.1-0.2,0.3-0.5,0.5-0.9s0.5-0.7,0.9-1.1c0.4-0.4,0.9-0.7,1.5-0.9C211.3,192.8,211.9,192.6,212.6,192.6L212.6,192.6z M195.2,209.1
		v-1.7c0.8,0,1.6-0.2,2.2-0.5c0.6-0.3,1.2-0.8,1.6-1.4c0.4-0.6,0.8-1.3,1-2.1c0.2-0.8,0.3-1.7,0.3-2.6c0-0.9-0.1-1.8-0.3-2.6
		c-0.2-0.8-0.6-1.5-1-2.1c-0.4-0.6-1-1.1-1.6-1.4c-0.6-0.3-1.4-0.5-2.2-0.5v-1.7c1.3,0,2.4,0.2,3.3,0.7c0.9,0.5,1.7,1.1,2.3,1.8
		c0.6,0.8,1,1.6,1.3,2.6c0.3,1,0.4,2,0.4,3.1c0,1.1-0.1,2.1-0.4,3.1c-0.3,1-0.7,1.9-1.3,2.6c-0.6,0.8-1.4,1.4-2.3,1.8
		C197.5,208.9,196.4,209.1,195.2,209.1z M195.2,192.6v1.7c-0.8,0-1.6,0.2-2.2,0.5c-0.6,0.3-1.2,0.8-1.6,1.4c-0.4,0.6-0.8,1.3-1,2.1
		c-0.2,0.8-0.3,1.7-0.3,2.6c0,0.9,0.1,1.8,0.3,2.6c0.2,0.8,0.6,1.5,1,2.1c0.4,0.6,1,1.1,1.6,1.4c0.6,0.3,1.4,0.5,2.2,0.5v1.7
		c-1.3,0-2.4-0.2-3.3-0.7c-0.9-0.5-1.7-1.1-2.3-1.8c-0.6-0.8-1-1.6-1.3-2.6c-0.3-1-0.4-2-0.4-3.1c0-1.1,0.1-2.1,0.4-3.1
		c0.3-1,0.7-1.9,1.3-2.6c0.6-0.8,1.4-1.4,2.3-1.8C192.8,192.8,193.9,192.6,195.2,192.6L195.2,192.6z M170.3,209.1v-1.7
		c0.3,0,0.6,0.1,0.9,0.1c0.4,0,0.7,0,1.2-0.1c0.4-0.1,0.8-0.2,1.2-0.3c0.4-0.1,0.8-0.2,1.1-0.4c0.4-0.1,0.7-0.3,0.9-0.4v2
		c-0.7,0.3-1.4,0.5-2.3,0.6c-0.8,0.1-1.6,0.2-2.3,0.2C170.7,209.1,170.5,209.1,170.3,209.1L170.3,209.1z M170.3,201.4v-1.7h4.3
		c0-0.7-0.1-1.3-0.2-2c-0.1-0.7-0.4-1.2-0.7-1.8c-0.3-0.5-0.7-0.9-1.3-1.2c-0.5-0.3-1.1-0.5-1.9-0.5c-0.1,0-0.2,0-0.3,0v-1.7
		c0.1,0,0.1,0,0.2,0c1.1,0,2.1,0.2,2.9,0.6c0.8,0.4,1.4,1,1.9,1.7c0.5,0.7,0.9,1.5,1.1,2.5c0.2,0.9,0.4,1.9,0.4,3v1H170.3z
		 M170.3,192.6v1.7c-0.6,0-1.1,0.2-1.6,0.5c-0.6,0.3-1.1,0.8-1.5,1.3c-0.4,0.5-0.7,1.1-0.9,1.8c-0.2,0.7-0.3,1.3-0.3,1.9h4.3v1.7
		h-4.3c0,0.8,0.1,1.6,0.3,2.4c0.2,0.7,0.6,1.4,1,1.9c0.4,0.5,1,1,1.6,1.3c0.4,0.2,0.9,0.3,1.4,0.4v1.7c-1-0.1-1.9-0.3-2.6-0.6
		c-0.9-0.4-1.7-1-2.2-1.7c-0.6-0.7-1-1.6-1.2-2.6c-0.3-1-0.4-2.1-0.4-3.3c0-1.2,0.2-2.3,0.5-3.3c0.3-1,0.8-1.9,1.3-2.6
		c0.6-0.7,1.3-1.3,2.1-1.7C168.5,192.8,169.3,192.6,170.3,192.6L170.3,192.6z M143.7,209.1v-1.7c0.8,0,1.6-0.2,2.2-0.5
		c0.6-0.3,1.2-0.8,1.6-1.4c0.4-0.6,0.8-1.3,1-2.1c0.2-0.8,0.3-1.7,0.3-2.6c0-0.9-0.1-1.8-0.3-2.6c-0.2-0.8-0.6-1.5-1-2.1
		c-0.4-0.6-1-1.1-1.6-1.4c-0.6-0.3-1.4-0.5-2.2-0.5v-1.7c1.3,0,2.4,0.2,3.3,0.7c0.9,0.5,1.7,1.1,2.3,1.8c0.6,0.8,1,1.6,1.3,2.6
		c0.3,1,0.4,2,0.4,3.1c0,1.1-0.1,2.1-0.4,3.1c-0.3,1-0.7,1.9-1.3,2.6c-0.6,0.8-1.4,1.4-2.3,1.8C146,208.9,144.9,209.1,143.7,209.1
		L143.7,209.1z M154.7,208.7h1.9v-7.8c0-0.7,0.1-1.4,0.2-2.2c0.1-0.8,0.3-1.4,0.6-2c0.3-0.6,0.7-1.1,1.2-1.5
		c0.5-0.4,1.1-0.6,1.9-0.6c0.5,0,1,0.1,1.4,0.2v-2c-0.2,0-0.4-0.1-0.6-0.1c-0.3,0-0.5-0.1-0.7-0.1c-0.5,0-1,0.1-1.4,0.3
		c-0.4,0.2-0.8,0.4-1.1,0.8c-0.3,0.3-0.6,0.7-0.9,1.1c-0.2,0.4-0.5,0.8-0.6,1.3h-0.1v-3h-1.9c0,0.3,0,0.6,0.1,0.8c0,0.2,0,0.5,0,0.8
		c0,0.3,0,0.6,0,0.9c0,0.3,0,0.7,0,1.1V208.7z M143.7,192.6v1.7c-0.8,0-1.6,0.2-2.2,0.5c-0.6,0.3-1.2,0.8-1.6,1.4
		c-0.4,0.6-0.8,1.3-1,2.1c-0.2,0.8-0.3,1.7-0.3,2.6c0,0.9,0.1,1.8,0.3,2.6c0.2,0.8,0.6,1.5,1,2.1c0.4,0.6,1,1.1,1.6,1.4
		c0.6,0.3,1.4,0.5,2.2,0.5v1.7c-1.3,0-2.4-0.2-3.3-0.7c-0.9-0.5-1.7-1.1-2.3-1.8c-0.6-0.8-1-1.6-1.3-2.6c-0.3-1-0.4-2-0.4-3.1
		c0-1.1,0.1-2.1,0.4-3.1c0.3-1,0.7-1.9,1.3-2.6c0.6-0.8,1.4-1.4,2.3-1.8C141.3,192.8,142.4,192.6,143.7,192.6L143.7,192.6z
		 M71.9,209.1v-1.7c0.9,0,1.7-0.2,2.3-0.6c0.6-0.4,1.1-0.9,1.4-1.5c0.4-0.6,0.6-1.3,0.7-2.1c0.1-0.8,0.2-1.6,0.2-2.3
		c0-0.8-0.1-1.5-0.2-2.3c-0.1-0.8-0.4-1.5-0.7-2.1c-0.4-0.6-0.8-1.1-1.4-1.5c-0.6-0.4-1.4-0.6-2.3-0.6v-1.7c0.1,0,0.2,0,0.3,0
		c1.2,0,2.1,0.2,3,0.6c0.8,0.4,1.5,1,2,1.7c0.5,0.7,0.9,1.6,1.1,2.6c0.2,1,0.4,2.1,0.4,3.3c0,1.2-0.1,2.3-0.4,3.3
		c-0.3,1-0.7,1.9-1.2,2.6c-0.5,0.7-1.2,1.3-2,1.7c-0.8,0.4-1.8,0.6-2.8,0.6C72.1,209.1,72,209.1,71.9,209.1L71.9,209.1z M82.6,208.7
		h1.9v-23.2h-1.9V208.7L82.6,208.7z M100.5,193h-2l-4.5,13.1h-0.1L89.5,193h-2.1l5.6,15.9l-0.4,1.4c-0.3,1-0.7,1.9-1,2.5
		c-0.4,0.6-1,0.9-1.8,0.9c-0.4,0-0.6,0-0.8-0.1c-0.2-0.1-0.4-0.1-0.6-0.2l-0.2,1.7c0.7,0.2,1.4,0.2,2.1,0.2c0.6,0,1-0.1,1.5-0.4
		c0.4-0.2,0.8-0.6,1.1-1c0.3-0.4,0.6-0.9,0.8-1.4c0.2-0.5,0.4-1.1,0.6-1.6L100.5,193L100.5,193z M132.8,208.7v-10.8
		c0-0.8-0.1-1.5-0.3-2.1c-0.2-0.6-0.5-1.2-1-1.7c-0.4-0.5-0.9-0.8-1.6-1.1c-0.6-0.3-1.3-0.4-2.1-0.4c-1.2,0-2.3,0.3-3.2,1
		c-0.9,0.6-1.5,1.4-1.9,2.4h-0.1c-0.1-0.7-0.3-1.2-0.7-1.7c-0.3-0.4-0.7-0.8-1.1-1c-0.4-0.2-0.8-0.4-1.3-0.5
		c-0.4-0.1-0.8-0.1-1.2-0.1c-0.8,0-1.5,0.1-2.1,0.3c-0.6,0.2-1,0.5-1.4,0.8c-0.4,0.3-0.7,0.7-0.9,1c-0.2,0.4-0.4,0.7-0.5,0.9l-0.1,0
		V193h-1.9c0.1,0.6,0.1,1.3,0.1,1.9c0,0.6,0,1.2,0,1.8v12h1.9V200c0-1,0.1-1.8,0.4-2.6c0.2-0.7,0.6-1.3,1-1.8
		c0.4-0.5,0.9-0.8,1.4-1.1c0.5-0.2,1-0.3,1.6-0.3c0.6,0,1.1,0.1,1.6,0.3c0.4,0.2,0.8,0.5,1,0.8c0.3,0.4,0.4,0.8,0.6,1.3
		c0.1,0.5,0.2,1,0.2,1.6v10.5h1.9V200c0-1,0.1-1.8,0.4-2.6c0.2-0.7,0.6-1.3,1-1.8c0.4-0.5,0.9-0.8,1.4-1.1c0.5-0.2,1-0.3,1.6-0.3
		c0.6,0,1.1,0.1,1.6,0.3c0.4,0.2,0.8,0.5,1,0.8c0.3,0.4,0.4,0.8,0.6,1.3c0.1,0.5,0.2,1,0.2,1.6v10.5H132.8z M19.5,208.4
		c0.7,0.3,1.4,0.5,2.2,0.6c0.7,0.1,1.5,0.2,2.3,0.2c0.6,0,1.2-0.1,1.9-0.2c0.6-0.2,1.2-0.4,1.8-0.8c0.5-0.4,1-0.8,1.3-1.4
		c0.4-0.6,0.5-1.3,0.5-2.1c0-0.9-0.2-1.6-0.6-2.2c-0.4-0.6-0.9-1.1-1.4-1.5c-0.6-0.4-1.2-0.8-1.9-1.1c-0.7-0.3-1.3-0.6-1.9-0.9
		c-0.6-0.3-1.1-0.6-1.4-0.9c-0.4-0.3-0.6-0.7-0.6-1.2c0-1,0.3-1.7,0.9-2.1c0.6-0.4,1.4-0.6,2.5-0.6c0.5,0,1.1,0.1,1.8,0.2
		c0.6,0.1,1.2,0.3,1.7,0.5l0.2-1.7c-0.7-0.3-1.4-0.5-2.2-0.6c-0.7-0.1-1.3-0.2-1.7-0.2c-0.7,0-1.3,0.1-1.9,0.2
		c-0.6,0.2-1.2,0.4-1.6,0.7c-0.5,0.3-0.9,0.8-1.2,1.3c-0.3,0.5-0.4,1.2-0.4,2c0,0.8,0.2,1.4,0.6,1.9c0.4,0.5,0.8,0.9,1.4,1.3
		c0.6,0.4,1.2,0.7,1.8,1c0.6,0.3,1.3,0.6,1.8,0.9c0.6,0.3,1,0.7,1.4,1.1c0.4,0.4,0.6,0.9,0.6,1.5c0,0.5-0.1,0.9-0.3,1.2
		s-0.4,0.6-0.8,0.9c-0.3,0.2-0.7,0.4-1.1,0.5c-0.4,0.1-0.9,0.2-1.3,0.2c-0.8,0-1.5-0.1-2.2-0.3c-0.7-0.2-1.3-0.4-1.9-0.7L19.5,208.4
		L19.5,208.4z M71.9,192.6v1.7c-0.9,0-1.6,0.2-2.2,0.6c-0.6,0.4-1.1,0.9-1.4,1.6c-0.4,0.6-0.6,1.4-0.8,2.1c-0.2,0.8-0.2,1.5-0.2,2.2
		c0,0.7,0.1,1.5,0.2,2.2c0.2,0.8,0.4,1.5,0.8,2.1c0.4,0.6,0.8,1.2,1.4,1.6c0.6,0.4,1.3,0.6,2.2,0.6v1.7c-1.1,0-2-0.3-2.7-0.8
		c-0.8-0.5-1.4-1.3-1.9-2.3h-0.1v9.2h-1.9V193h1.9l-0.1,2.9h0.1c0.1-0.2,0.3-0.5,0.5-0.9c0.2-0.4,0.5-0.7,0.9-1.1
		c0.4-0.4,0.9-0.7,1.5-0.9C70.6,192.8,71.2,192.6,71.9,192.6L71.9,192.6z M32.9,208.7h1.9V193h-1.9V208.7L32.9,208.7z M34.8,186.8
		h-1.9v2.6h1.9V186.8L34.8,186.8z M60.7,208.7v-10.8c0-0.8-0.1-1.5-0.3-2.1c-0.2-0.6-0.5-1.2-1-1.7c-0.4-0.5-0.9-0.8-1.6-1.1
		c-0.6-0.3-1.3-0.4-2.1-0.4c-1.2,0-2.3,0.3-3.2,1c-0.9,0.6-1.5,1.4-1.9,2.4h-0.1c-0.1-0.7-0.3-1.2-0.7-1.7c-0.3-0.4-0.7-0.8-1.1-1
		c-0.4-0.2-0.8-0.4-1.3-0.5c-0.4-0.1-0.8-0.1-1.2-0.1c-0.8,0-1.5,0.1-2.1,0.3c-0.6,0.2-1,0.5-1.4,0.8c-0.4,0.3-0.7,0.7-0.9,1
		c-0.2,0.4-0.4,0.7-0.5,0.9l-0.1,0V193h-1.9c0.1,0.6,0.1,1.3,0.1,1.9c0,0.6,0,1.2,0,1.8v12h1.9V200c0-1,0.1-1.8,0.4-2.6
		c0.2-0.7,0.6-1.3,1-1.8c0.4-0.5,0.9-0.8,1.4-1.1c0.5-0.2,1-0.3,1.6-0.3c0.6,0,1.1,0.1,1.6,0.3c0.4,0.2,0.8,0.5,1,0.8
		c0.3,0.4,0.4,0.8,0.6,1.3c0.1,0.5,0.2,1,0.2,1.6v10.5h1.9V200c0-1,0.1-1.8,0.4-2.6c0.2-0.7,0.6-1.3,1-1.8c0.4-0.5,0.9-0.8,1.4-1.1
		c0.5-0.2,1-0.3,1.6-0.3c0.6,0,1.1,0.1,1.6,0.3c0.4,0.2,0.8,0.5,1,0.8c0.3,0.4,0.4,0.8,0.6,1.3c0.1,0.5,0.2,1,0.2,1.6v10.5H60.7z"/>
	<g>
		<path class="st2" d="M110.3,181v-4.3h4.3l-3.7-7.4h-0.6v-4.6h4.6l10,19.6h-6.6l-1.6-3.3H110.3L110.3,181z M125.8,164.7v19.6h19.8
			v-5h-13.6v-14.6H125.8z M110.3,164.7v4.6h-0.6l-3.7,7.4h4.3v4.3h-6.4l-1.6,3.3h-5.2v-2.9l8.6-16.7H110.3L110.3,164.7z M97.1,169.7
			h1.5v-5h-1.5V169.7z M18.4,164.7v19.6h5.8L24,169.6h1l7.2,14.7h4.9l7.2-14.7h1l-0.1,14.7h5.8v-19.6H40.4l-5.7,12.7L29,164.7H18.4
			L18.4,164.7z M97.1,164.7v5h-7v14.6H84v-14.6h-8.5v-5H97.1L97.1,164.7z M97.1,181.3l-1.5,2.9h1.5V181.3L97.1,181.3z M53.6,164.7
			v19.6H75v-4.7H59.4v-3.1h14.7v-4.3H59.4v-2.9h15.5v-4.6H53.6z"/>
		<path class="st2" d="M253.9,184.7v-5.2h1.3c1.1,0,2,0,2.7-0.1c0.7-0.1,1.3-0.2,1.7-0.3s0.7-0.4,0.9-0.8c0.2-0.4,0.3-0.8,0.4-1.4
			c0.1-0.6,0.1-1.4,0.1-2.3c0-0.8,0-1.5-0.1-2.1c-0.1-0.6-0.1-1-0.3-1.4c-0.1-0.4-0.3-0.6-0.5-0.9c-0.1-0.2-0.3-0.3-0.5-0.4
			c-0.2-0.1-0.5-0.2-0.9-0.3c-0.4-0.1-0.8-0.1-1.4-0.1c-0.6,0-1.4,0-2.3,0h-1.2v-5.1h1.2c1,0,1.9,0,2.6,0c0.7,0,1.3,0,1.8,0
			c0.5,0,0.9,0,1.2,0.1c0.3,0,0.7,0.1,1,0.1c0.3,0.1,0.6,0.1,0.9,0.2c1,0.2,1.8,0.6,2.4,1.2c0.6,0.6,1.1,1.3,1.4,2.3
			c0.1,0.3,0.2,0.7,0.3,1.1c0.1,0.4,0.1,0.8,0.2,1.2c0,0.5,0.1,1,0.1,1.6c0,0.6,0,1.3,0,2.1c0,1.3,0,2.5-0.1,3.4
			c-0.1,1-0.2,1.8-0.3,2.4c-0.1,0.7-0.3,1.2-0.6,1.7c-0.2,0.5-0.6,0.9-0.9,1.2c-0.3,0.3-0.6,0.5-1,0.7c-0.4,0.2-0.8,0.4-1.3,0.5
			c-0.5,0.1-1.1,0.2-1.8,0.3c-0.7,0.1-1.5,0.1-2.5,0.2c-1,0-2.1,0-3.5,0H253.9L253.9,184.7z M269.3,164.4v20.3h6.3v-20.3H269.3
			L269.3,164.4z M278.5,164.4v20.3h6.2l-0.1-15.1h0.7l10.4,15.1h10.5v-20.3h-6.2l0.1,15.1h-0.6l-10.4-15.1H278.5L278.5,164.4z
			 M320.9,173.2v4h7.9v0.6c0,0.4,0,0.7,0,1c0,0.3-0.1,0.5-0.3,0.6c-0.1,0.2-0.4,0.3-0.7,0.4c-0.3,0.1-0.7,0.2-1.2,0.2
			c-0.5,0-1.2,0.1-2,0.1c-0.8,0-1.8,0-3,0l-3.5-0.1c-0.6,0-1,0-1.3-0.1s-0.6-0.1-0.8-0.2c-0.2-0.1-0.4-0.2-0.6-0.3
			c-0.2-0.1-0.3-0.3-0.4-0.5c-0.1-0.2-0.2-0.5-0.3-0.9c-0.1-0.4-0.1-0.9-0.1-1.4c0-0.6,0-1.3,0-2.2c0-0.9,0-1.6,0-2.2
			c0-0.6,0.1-1.1,0.2-1.5c0.1-0.4,0.3-0.7,0.6-0.9c0.3-0.2,0.7-0.4,1.2-0.5c0.5-0.1,1.2-0.2,2-0.2c0.8,0,1.8,0,3,0
			c1.1,0,2.1,0,2.8,0c0.8,0,1.4,0,1.9,0.1c0.5,0,0.9,0.1,1.2,0.2c0.3,0.1,0.5,0.2,0.6,0.3c0.1,0.1,0.2,0.2,0.3,0.3
			c0.1,0.1,0.1,0.3,0.1,0.5c0,0.2,0,0.5,0,0.9h6c0-0.7,0-1.4-0.1-1.9c0-0.5-0.1-1-0.2-1.4c-0.1-0.4-0.2-0.8-0.3-1.1
			c-0.1-0.3-0.3-0.6-0.5-0.8c-0.3-0.3-0.6-0.6-1-0.8c-0.4-0.2-0.9-0.4-1.5-0.6c-0.6-0.2-1.3-0.3-2.1-0.4c-0.8-0.1-1.8-0.2-2.9-0.2
			c-1.1,0-2.4-0.1-3.9-0.1c-1.8,0-3.4,0-4.8,0.1c-1.4,0-2.6,0.1-3.5,0.3c-1,0.1-1.8,0.4-2.5,0.6c-0.7,0.3-1.2,0.7-1.6,1.2
			c-0.4,0.5-0.7,1.1-0.9,1.8c-0.2,0.7-0.3,1.6-0.4,2.6c-0.1,1-0.1,2.2-0.1,3.5c0,1.3,0,2.5,0,3.4c0,0.9,0.1,1.8,0.2,2.4
			c0.1,0.7,0.2,1.2,0.4,1.6c0.2,0.4,0.4,0.8,0.6,1.1c0.2,0.3,0.5,0.6,0.9,0.8c0.3,0.2,0.7,0.4,1.1,0.6c0.4,0.2,0.9,0.3,1.4,0.4
			c0.5,0.1,1.2,0.2,1.9,0.3c0.7,0.1,1.6,0.1,2.6,0.1c1,0,2.2,0,3.6,0c1.1,0,2,0,2.9,0c0.8,0,1.6,0,2.2-0.1c0.6,0,1.2-0.1,1.7-0.1
			c0.5,0,1-0.1,1.4-0.2c0.4-0.1,0.8-0.1,1.2-0.2c1.2-0.2,2.1-0.7,2.8-1.4c0.6-0.7,1-1.6,1.1-2.8c0-0.2,0-0.5,0.1-0.9
			c0-0.4,0-0.8,0.1-1.3c0-0.5,0-1,0-1.5c0-0.5,0-1,0-1.5c0-0.5,0-0.9,0-1.3v-0.5H320.9L320.9,173.2z M336.4,178v1
			c0,0.9,0.1,1.7,0.2,2.3c0.1,0.6,0.3,1.1,0.6,1.5c0.3,0.4,0.6,0.7,1.1,1c0.3,0.2,0.8,0.4,1.3,0.6c0.5,0.2,1.2,0.3,1.9,0.4
			c0.8,0.1,1.7,0.2,2.8,0.2c1.1,0,2.4,0.1,4,0.1c1.5,0,2.8,0,3.8,0c1.1,0,2-0.1,2.7-0.1c0.7-0.1,1.4-0.1,1.9-0.2
			c0.5-0.1,0.9-0.2,1.2-0.3c0.7-0.3,1.2-0.6,1.7-1.1c0.4-0.5,0.7-1.1,0.9-2c0.2-0.8,0.3-1.8,0.3-3c0-0.9-0.1-1.7-0.2-2.4
			c-0.1-0.6-0.3-1.2-0.6-1.6c-0.3-0.4-0.6-0.8-1.1-1.1c-0.2-0.2-0.5-0.3-0.8-0.4c-0.3-0.1-0.6-0.2-1.1-0.3c-0.4-0.1-0.9-0.1-1.6-0.2
			c-0.6-0.1-1.4-0.1-2.3-0.1c-0.9,0-2-0.1-3.3-0.1c-1,0-1.9-0.1-2.7-0.1c-0.7,0-1.4-0.1-1.9-0.1c-0.5,0-0.9-0.1-1.2-0.1
			c-0.3,0-0.5-0.1-0.6-0.1c-0.3-0.1-0.5-0.2-0.7-0.4c-0.1-0.2-0.2-0.5-0.2-0.9c0-0.3,0-0.5,0.1-0.7c0.1-0.2,0.2-0.4,0.4-0.5
			c0.2-0.1,0.5-0.2,0.9-0.3c0.4-0.1,0.9-0.1,1.6-0.1c0.7,0,1.5,0,2.5,0c0.9,0,1.6,0,2.2,0c0.6,0,1.1,0,1.5,0c0.4,0,0.7,0,0.9,0.1
			c0.2,0,0.4,0.1,0.6,0.1c0.1,0,0.3,0.1,0.4,0.2c0.1,0.1,0.3,0.2,0.3,0.3c0.1,0.1,0.1,0.3,0.2,0.5c0,0.2,0.1,0.5,0.1,0.9h5.8
			c0-0.2,0-0.4,0-0.6c0-0.2,0-0.3,0-0.4c0-0.8-0.1-1.5-0.2-2.1c-0.1-0.6-0.3-1.1-0.5-1.4c-0.2-0.4-0.6-0.7-1-1
			c-0.3-0.2-0.7-0.4-1.2-0.6c-0.5-0.2-1.1-0.3-1.8-0.4c-0.7-0.1-1.6-0.2-2.6-0.2c-1,0-2.2-0.1-3.7-0.1c-1.6,0-3,0-4.1,0
			c-1.2,0-2.1,0.1-2.9,0.1c-0.7,0.1-1.3,0.1-1.7,0.2c-0.9,0.2-1.6,0.5-2.2,1c-0.6,0.5-1,1.1-1.2,2c-0.3,0.8-0.4,1.9-0.4,3.2
			c0,1.1,0.1,2,0.3,2.8c0.2,0.7,0.5,1.3,1,1.8c0.5,0.4,1.1,0.8,1.9,1c0.8,0.2,1.8,0.3,3,0.4l1.6,0.1l3.2,0.2l4.8,0.2
			c0.6,0,1.1,0.1,1.5,0.1c0.3,0.1,0.6,0.2,0.7,0.5c0.1,0.2,0.2,0.5,0.2,0.9c0,0.3,0,0.5,0,0.8c0,0.2-0.1,0.4-0.2,0.5
			c-0.1,0.1-0.3,0.2-0.6,0.3c-0.3,0.1-0.6,0.1-1.1,0.2c-0.5,0-1.1,0.1-1.8,0.1c-0.7,0-1.7,0-2.7,0c-0.8,0-1.6,0-2.1,0
			c-0.6,0-1.1,0-1.5,0c-0.4,0-0.7,0-0.9-0.1c-0.2,0-0.4-0.1-0.6-0.1c-0.1-0.1-0.3-0.1-0.4-0.2c-0.2-0.1-0.3-0.2-0.4-0.4
			c-0.1-0.1-0.1-0.3-0.2-0.6c0-0.2,0-0.6,0-1H336.4z M166.5,184.7h2.3c1.1,0,2.1,0,2.8,0c0.8,0,1.4,0,2,0c0.5,0,1,0,1.3,0
			c0.3,0,0.6,0,0.9-0.1c0.2,0,0.4-0.1,0.6-0.1c0.2,0,0.3-0.1,0.5-0.2c0.6-0.2,1.1-0.5,1.4-0.9c0.4-0.4,0.6-1,0.8-1.6
			c0.2-0.7,0.3-1.5,0.3-2.4c0-1.1-0.1-1.9-0.3-2.6c-0.2-0.7-0.6-1.2-1.1-1.5c-0.5-0.4-1.2-0.6-2.1-0.7c0.7-0.2,1.2-0.5,1.6-0.8
			c0.4-0.4,0.7-0.9,0.8-1.5c0.2-0.6,0.3-1.4,0.3-2.4c0-0.9-0.1-1.7-0.2-2.3c-0.1-0.6-0.4-1.2-0.7-1.6c-0.3-0.4-0.8-0.7-1.3-0.9
			c-0.6-0.2-1.2-0.3-2-0.4c-0.2,0-0.3,0-0.5,0c-0.1,0-0.3,0-0.5,0c-0.2,0-0.5,0-0.8,0c-0.4,0-0.8,0-1.4,0c-0.6,0-1.4,0-2.3,0h-2.2
			v4.8h2.2c0.7,0,1.2,0,1.6,0c0.4,0,0.7,0,0.9,0c0.2,0,0.3,0,0.4,0c0.1,0,0.2,0,0.2,0c0.3,0.1,0.5,0.2,0.7,0.5
			c0.1,0.2,0.2,0.6,0.2,1c0,0.4,0,0.7-0.2,0.9c-0.1,0.2-0.3,0.4-0.5,0.5c-0.1,0.1-0.3,0.1-0.6,0.1c-0.3,0-0.6,0.1-1.1,0.1
			c-0.5,0-1,0-1.7,0h-2.2v4h2.3c0.7,0,1.3,0,1.7,0c0.4,0,0.8,0,1.1,0c0.3,0,0.5,0,0.6,0c0.1,0,0.2,0,0.3,0c0.1,0,0.1,0,0.2,0
			c0.3,0.1,0.6,0.2,0.7,0.5c0.1,0.2,0.2,0.6,0.2,1.1c0,0.4-0.1,0.8-0.2,1c-0.1,0.2-0.3,0.4-0.5,0.5c-0.1,0-0.2,0.1-0.2,0.1
			c-0.1,0-0.2,0-0.3,0.1c-0.1,0-0.3,0-0.6,0c-0.3,0-0.6,0-1.1,0c-0.5,0-1,0-1.8,0h-2.3V184.7L166.5,184.7z M253.9,164.4v5.1h-7.1v10
			h7.1v5.2h-13.1v-20.3H253.9L253.9,164.4z M181.3,164.4v9.3c0,0.7,0,1.2,0,1.6c0,0.4,0,0.8,0,1c0,0.3,0,0.5,0,0.6
			c0,0.1,0,0.3,0,0.4c0,0.1,0,0.2,0,0.4c0,0.7,0.1,1.4,0.2,1.9c0.1,0.5,0.2,1,0.3,1.4c0.1,0.4,0.3,0.8,0.4,1.1
			c0.2,0.3,0.4,0.6,0.6,0.8c0.3,0.3,0.6,0.6,1,0.8c0.4,0.2,0.9,0.4,1.5,0.6c0.6,0.2,1.3,0.3,2.1,0.4c0.8,0.1,1.8,0.2,2.9,0.2
			c1.1,0,2.4,0.1,4,0.1c1.1,0,2.1,0,3,0c0.9,0,1.6,0,2.3-0.1c0.6,0,1.2-0.1,1.7-0.2c0.5-0.1,1-0.1,1.4-0.2c0.8-0.2,1.4-0.4,2-0.8
			c0.6-0.4,1-0.9,1.4-1.5c0.4-0.6,0.6-1.3,0.7-2.1c0-0.3,0.1-0.5,0.1-0.8c0-0.2,0-0.5,0.1-0.8c0-0.3,0-0.6,0-1c0-0.4,0-0.9,0-1.5
			c0-0.6,0-1.4,0-2.3v-9.3h-6v9.3c0,0.1,0,0.3,0,0.6c0,0.2,0,0.5,0,0.8c0,0.3,0,0.5,0,0.8c0,0.6-0.1,1.1-0.1,1.5
			c0,0.4-0.1,0.7-0.2,0.9c-0.1,0.2-0.2,0.4-0.4,0.6c-0.2,0.2-0.4,0.3-0.6,0.5c-0.3,0.1-0.6,0.2-1.1,0.3c-0.5,0.1-1,0.1-1.7,0.1
			c-0.7,0-1.6,0-2.6,0c-1.3,0-2.3,0-3.2-0.1c-0.8-0.1-1.5-0.2-2-0.3c-0.5-0.1-0.8-0.3-1.1-0.6c-0.2-0.3-0.4-0.6-0.5-1
			c0-0.2-0.1-0.3-0.1-0.4c0-0.1,0-0.3,0-0.4c0-0.2,0-0.4,0-0.6c0-0.3,0-0.6,0-1c0-0.4,0-0.9,0-1.6v-9.3H181.3L181.3,164.4z
			 M209.8,164.4v20.3h6.3v-20.3H209.8L209.8,164.4z M218.9,164.4v20.3h20.4v-5.2h-14.1v-15.1H218.9z M154.4,184.7h12v-4.9h-6.3v-3.4
			h6.3v-4h-6.3v-3.2h6.3v-4.8h-12V184.7z"/>
	</g>
	<polygon class="st3" points="134.7,22.8 153.5,38.9 164,46.9 163.2,50.1 167.2,53.3 169.2,51.3 177.9,58.9 178,62.6 180.5,64.5 
		182.6,62.7 190.4,69.2 190.5,72 199.1,79 207.8,73.5 207.1,70.8 228.7,53.7 230.7,55.8 236.7,50.9 235.6,48.2 246.9,38.9 
		354.1,155.9 20.4,159.6 	"/>
	<line class="st3" x1="53.4" y1="159.1" x2="141.4" y2="28.3"/>
	<line class="st3" x1="54.3" y1="159.6" x2="141.6" y2="29.6"/>
	<line class="st4" x1="153.9" y1="39.3" x2="102.8" y2="158.8"/>
	<line class="st4" x1="154.7" y1="39.9" x2="103.9" y2="158.8"/>
	<line class="st4" x1="169.2" y1="51.6" x2="151.7" y2="158.5"/>
	<line class="st4" x1="167.1" y1="53.3" x2="147" y2="158.1"/>
	<line class="st4" x1="177.2" y1="58.2" x2="172.5" y2="158.1"/>
	<line class="st4" x1="182.6" y1="62.8" x2="182.7" y2="157.7"/>
	<line class="st4" x1="190.5" y1="72.5" x2="196.9" y2="158.1"/>
	<line class="st4" x1="199.1" y1="78.3" x2="211.5" y2="157.4"/>
	<line class="st4" x1="207.8" y1="73.5" x2="229" y2="156.6"/>
	<line class="st4" x1="215.9" y1="64.4" x2="249.8" y2="157"/>
	<line class="st4" x1="228.6" y1="53.8" x2="284.4" y2="157"/>
	<line class="st3" x1="235.7" y1="48.3" x2="309.6" y2="156.3"/>
	<polyline class="st4" points="158.6,67 146.6,58.2 132,47.3 130.3,47.1 	"/>
	<line class="st4" x1="165.9" y1="72.2" x2="176.5" y2="79"/>
	<polyline class="st4" points="176.1,78.3 179.2,80.1 182.4,77.9 191.2,84 	"/>
	<polyline class="st3" points="191.2,81.8 201,89.6 210.2,83.2 	"/>
	<polyline class="st4" points="209.8,80.6 218.3,74.5 219.5,73.8 233.1,63.2 235.8,64.5 243.1,59.5 245.2,62.2 258.9,52.6 	"/>
	<polyline class="st4" points="157.8,70.1 163,73.6 165.9,72.1 	"/>
	<polygon class="st4" points="158.4,72.1 157.4,75.3 161.2,77.8 161.8,74.7 	"/>
	<line class="st4" x1="158.1" y1="72.8" x2="161.8" y2="75.5"/>
	<path class="st4" d="M156.6,79.1l-0.9,3.5l4,2.5l0.6-3.7C160.3,81.5,156.7,79.1,156.6,79.1z"/>
	<line class="st4" x1="156.5" y1="79.9" x2="160.3" y2="82.3"/>
	<polyline class="st4" points="125.8,52.9 127.5,53.1 143.4,64.1 144.3,65 157,73.3 156.1,77 161.6,80.7 163.8,78.9 164.8,78.9 
		176,86.1 175.6,90.3 179.1,92 181.6,91.1 182.6,91.1 192.4,97.1 192.6,100.5 204,108.3 214.9,102.2 216.3,106.9 227.6,100.8 
		229.3,99.8 247.3,88.7 250.6,90.4 260.8,84.8 265,91.3 	"/>
	<polygon class="st4" points="250.4,82.5 252.7,86.4 257.2,83.4 254.8,79.6 	"/>
	<line class="st4" x1="250.9" y1="83.1" x2="255.2" y2="80.3"/>
	<polygon class="st4" points="255.4,90.6 257.7,94.8 262.9,91.9 260.3,87.8 	"/>
	<line class="st4" x1="255.9" y1="91.1" x2="260.8" y2="88.3"/>
	<polyline class="st4" points="53,120.6 74.7,127.3 76.1,125.2 78.8,125.8 111.3,136.2 112.7,137.3 115.3,137.4 138.9,145.3 
		139.4,147.8 148.4,150.5 149.2,151.5 151.8,150.1 153.2,150.1 172.7,156.1 173.1,142.3 178.8,144.4 181.4,143.3 182.8,143.1 
		196.1,148.3 196.3,151.2 211.7,157.1 227.8,152 	"/>
	<polyline class="st4" points="227.3,150.3 243.2,144.9 245.4,144.8 245.2,144.1 272.3,134.6 275.8,135.9 292.2,130.9 291.1,129 
		292.4,127.8 306.8,122.8 320.1,118.2 	"/>
	<polygon class="st3" points="63.1,116.6 70.4,107.4 81.4,111.3 74.8,120.6 	"/>
	<line class="st3" x1="69.3" y1="109.5" x2="80.1" y2="113.5"/>
	<polyline class="st4" points="71.9,98.2 71.9,98.9 70.9,101.8 87.7,108.4 89.5,105.5 92.4,105.8 119.5,117.1 120.5,118.4 
		122.9,118.4 143.5,126.8 144.2,128 143.7,130.6 151.7,133.7 154.8,132.2 156.2,132.1 173.5,139 173.9,128.8 174.5,128.7 179,130.5 
		181.4,129.5 182.8,129.3 195.2,135.1 195.4,138.4 209.4,144.7 210.4,144.9 224.5,139.5 224,137.1 238.3,131.1 240.4,130.8 
		240.2,130.3 264.4,120.1 267.7,121.7 281.8,115.9 280.6,114 281.7,113 305.7,103.2 	"/>
	<polygon class="st4" points="195.7,129.5 195.9,134.9 199.4,136.6 199.1,131.4 	"/>
	<polyline class="st4" points="195.7,130.2 198.4,131.5 198.7,136.1 	"/>
	<polygon class="st4" points="203.5,133.8 203.9,138.8 207.4,140.2 206.7,135.4 	"/>
	<polyline class="st4" points="203.7,134.6 206.1,135.6 206.6,140 	"/>
	<polygon class="st4" points="215.2,133.7 219.4,131.9 220.5,137.3 216.2,138.9 	"/>
	<polyline class="st4" points="216.6,138.8 215.9,134 219.3,132.4 	"/>
	<polygon class="st5" points="190.3,71.9 191.2,82.8 201,89.4 210.4,83.8 208.1,73.6 199.6,78.1 	"/>
	<polygon class="st0" points="21.5,159.1 53.6,120.6 74.8,127.1 54.4,158.7 	"/>
	<polygon class="st6" points="113.3,55.7 116,52.2 121.4,55.9 119.1,59.4 	"/>
	<line class="st4" x1="115.4" y1="53.1" x2="120.9" y2="56.7"/>
	<polygon class="st6" points="107.1,63.3 109.9,59.5 116.1,63.2 113.5,67.2 	"/>
	<line class="st4" x1="109.7" y1="60.1" x2="115.7" y2="63.7"/>
	<polygon class="st0" points="118.9,43 134.4,23.6 141.1,29 127.3,49.4 	"/>
	<polygon class="st0" points="236.1,48.7 247.2,39.6 258.6,52.6 245.6,61.8 	"/>
	<polygon class="st0" points="246.6,63.1 280.1,112.3 281.1,111.4 304.1,102.3 260,53.4 	"/>
	<polygon class="st0" points="281.9,114.9 282.4,114 305.9,104.7 317.8,117.7 291.6,126.5 290.3,127.8 	"/>
	<polygon class="st0" points="292.4,130.2 293.1,129.4 320.3,120 352.1,155.1 309.6,155.3 	"/>
	<line class="st4" x1="135.8" y1="157.5" x2="163.1" y2="48.8"/>
</g>
</svg>
